<svg width="166" height="177" viewBox="0 0 166 177" fill="none" xmlns="http://www.w3.org/2000/svg">
<path d="M50.9722 166.265C49.1037 166.265 47.2608 165.787 45.5896 164.869C43.9185 163.95 42.4649 162.617 41.3442 160.974L11.8244 117.719C10.8752 116.33 10.1845 114.748 9.7916 113.065C9.39873 111.382 9.31144 109.631 9.53472 107.911C9.758 106.191 10.2875 104.536 11.0929 103.041C11.8983 101.546 12.9639 100.24 14.2288 99.1971C15.4937 98.1546 16.933 97.3963 18.4647 96.9653C19.9963 96.5344 21.5902 96.4392 23.1553 96.6854C24.7204 96.9316 26.2261 97.5142 27.5862 98.4C28.9464 99.2858 30.1344 100.457 31.0824 101.848L50.3952 130.144L99.9978 48.3801C101.769 45.4632 104.522 43.4388 107.652 42.7519C110.781 42.065 114.031 42.7719 116.686 44.7172C119.341 46.6625 121.185 49.6869 121.811 53.1255C122.438 56.5642 121.796 60.1355 120.028 63.0544L60.9881 160.375C59.9201 162.135 58.4837 163.588 56.7992 164.612C55.1148 165.636 53.2315 166.202 51.3072 166.261C51.1955 166.263 51.0839 166.265 50.9722 166.265Z" fill="#F2F2F2"/>
<path d="M85.3409 152.064C83.4723 152.064 81.6295 151.586 79.9583 150.668C78.2871 149.749 76.8336 148.416 75.7128 146.773L46.1931 103.518C45.2439 102.129 44.5531 100.547 44.1603 98.8643C43.7674 97.1813 43.6801 95.4297 43.9034 93.7097C44.1266 91.9896 44.6561 90.3348 45.4616 88.8397C46.267 87.3445 47.3326 86.0384 48.5974 84.996C49.8623 83.9536 51.3017 83.1952 52.8333 82.7642C54.365 82.3333 55.9589 82.2382 57.524 82.4843C59.0891 82.7305 60.5947 83.3131 61.9549 84.1989C63.315 85.0847 64.503 86.2564 65.451 87.6469L84.7639 115.943L134.366 34.179C135.243 32.7337 136.37 31.4924 137.684 30.5258C138.997 29.5593 140.471 28.8865 142.021 28.5458C143.571 28.2051 145.167 28.2033 146.717 28.5404C148.268 28.8775 149.743 29.5469 151.058 30.5104C152.373 31.474 153.503 32.7127 154.382 34.156C155.262 35.5993 155.874 37.2188 156.184 38.9221C156.494 40.6254 156.496 42.3791 156.189 44.0831C155.882 45.7871 155.273 47.408 154.396 48.8533L95.3568 146.174C94.2888 147.934 92.8523 149.387 91.1679 150.411C89.4835 151.435 87.6002 152.001 85.6759 152.06C85.5642 152.062 85.4525 152.064 85.3409 152.064Z" fill="#28A84C"/>
</svg>
