<svg width="335" height="211" viewBox="0 0 335 211" fill="none" xmlns="http://www.w3.org/2000/svg">
<g clip-path="url(#clip0_2_34)">
<path d="M266.045 121.276H29.0352V195.113H266.045V121.276Z" fill="#A31D1E"/>
<path d="M95.1349 112.272C97.2614 113.924 98.039 114.457 98.4918 114.39C120.433 120.782 101.198 128.273 90.5378 115.557L95.1349 112.272Z" fill="#FFB8B8"/>
<path d="M22.735 179.805V194.812L33.5353 194.212L30.5354 178.604L22.735 179.805Z" fill="#FFB8B8"/>
<path d="M82.7375 179.805V194.812L71.9369 194.212L74.9371 178.604L82.7375 179.805Z" fill="#FFB8B8"/>
<path d="M49.7361 102.367L65.9367 101.767C103.31 140.964 89.176 132.024 88.1377 185.808L68.3368 179.805L72.537 142.587C72.5392 142.585 73.645 141.848 72.7258 141.831C66.9771 143.807 62.7826 119.336 50.3361 122.177C36.1725 121.499 33.8667 142.519 28.1351 142.587L32.3353 179.805L12.5345 185.808C10.3175 126.705 -0.548015 140.057 34.7354 101.767L49.7361 102.367Z" fill="#2F2E41"/>
<path d="M25.735 190.01C25.735 190.01 23.3349 185.208 20.3348 187.609C17.3347 190.01 10.1344 197.214 10.1344 197.214C10.1344 197.214 -7.26638 205.017 3.53408 209.82C14.3345 214.622 23.3349 203.217 23.3349 203.217C33.6222 201.07 39.556 199.696 34.1005 188.47C31.0031 189.811 26.62 191.363 25.735 190.01Z" fill="#2F2E41"/>
<path d="M79.7373 190.01C79.7373 190.01 82.1374 185.208 85.1376 187.609C88.1377 190.01 95.338 197.214 95.338 197.214C95.338 197.214 112.739 205.017 101.938 209.82C91.1378 214.622 82.1374 203.217 82.1374 203.217C71.8501 201.07 65.9164 199.696 71.3719 188.47C74.4692 189.811 78.8524 191.363 79.7373 190.01Z" fill="#2F2E41"/>
<path d="M65.9367 34.5336C65.0443 49.4774 44.6585 48.1617 44.3359 34.5335C45.2282 19.5898 65.6141 20.9055 65.9367 34.5336Z" fill="#FFB8B8"/>
<path d="M50.3361 42.3374C55.5852 58.2093 43.1923 49.5681 60.5365 62.1472L67.1368 48.9407C67.1368 48.9407 62.3366 47.1398 62.9366 40.5366L50.3361 42.3374Z" fill="#FFB8B8"/>
<path d="M82.7375 51.3419L64.8509 47.2574C65.354 58.0473 53.8444 55.8756 51.8361 50.4481L34.7354 60.3463C41.9131 87.0911 40.094 88.1946 30.5352 105.368C26.8872 108.701 32.3429 110.611 37.0924 108.788C40.7149 106.551 42.5546 104.563 46.4362 105.069C64.7778 108.89 80.0469 109.792 82.4633 108.299C83.328 107.06 82.4383 51.5568 82.7375 51.3419Z" fill="#575A89"/>
<path d="M77.9372 52.5425C78.5373 52.5425 81.6281 51.0886 81.6281 51.0886C90.6205 50.9369 96.655 111.452 97.1381 113.172L91.1378 117.374L81.5374 92.7623L77.9372 52.5425Z" fill="#575A89"/>
<path d="M35.9355 122.777C36.2423 125.043 36.7643 150.484 45.8742 138.6C47.0693 129.929 43.0059 127.341 41.9357 121.576L35.9355 122.777Z" fill="#FFB8B8"/>
<path d="M38.3356 60.3463L36.4971 59.3266C31.5682 59.1646 33.1216 72.2175 31.0363 81.7766C29.3327 92.9127 29.8177 105.192 31.8165 121.609C31.9913 127.633 42.7765 123.838 44.3358 123.377C44.3358 123.377 40.7357 98.7652 42.5358 94.5631C44.3358 90.3611 38.3356 60.3463 38.3356 60.3463Z" fill="#575A89"/>
<path d="M65.4647 24.0588C63.7984 21.3517 61.1902 19.3569 58.1421 18.4583L55.9032 20.2501L56.7737 18.1601C56.0417 18.0484 55.3008 18.0056 54.5609 18.0322L52.5465 20.6233L53.3802 18.1209C44.7366 19.0495 39.6226 28.9765 44.11 35.9241C44.8022 33.796 45.6423 31.799 46.3345 29.6708C46.8786 29.745 47.4299 29.7477 47.9746 29.6788L48.8168 27.7129L49.0521 29.5956C51.6624 29.3681 55.534 28.8686 58.0087 28.4109L57.7681 26.9666L59.2077 28.1668C59.9659 27.9922 60.4161 27.8339 60.3789 27.7129C62.2193 30.6812 64.0429 32.5772 65.8833 35.5455C66.5819 31.3585 67.8153 27.8782 65.4647 24.0588Z" fill="#2F2E41"/>
<path d="M251.859 130.183H199.516V155.024H251.859V130.183Z" fill="white"/>
<path d="M241.961 135.386H209.414V138.365H241.961V135.386Z" fill="#E6E6E6"/>
<path d="M241.961 141.114H209.414V144.093H241.961V141.114Z" fill="#E6E6E6"/>
<path d="M241.961 146.842H209.414V149.821H241.961V146.842Z" fill="#E6E6E6"/>
<path d="M153.933 136.084L152.231 133.134L150.528 130.183L148.826 133.134L147.123 136.084H148.952V144.627H152.104V136.084H153.933Z" fill="white"/>
<path d="M269.302 196.874C277.045 196.874 283.322 190.594 283.322 182.848C283.322 175.102 277.045 168.822 269.302 168.822C261.559 168.822 255.282 175.102 255.282 182.848C255.282 190.594 261.559 196.874 269.302 196.874Z" fill="#3F3D56"/>
<path d="M271.851 189.064C275.282 189.064 278.064 186.281 278.064 182.848C278.064 179.415 275.282 176.632 271.851 176.632C268.42 176.632 265.638 179.415 265.638 182.848C265.638 186.281 268.42 189.064 271.851 189.064Z" fill="#E6E6E6"/>
<path d="M260.46 192.65L291.048 205.401L290.092 208.429L272.488 206.437L242.697 193.208L259.265 195.121L260.46 192.65Z" fill="#3F3D56"/>
<path d="M287.498 204.826L325.541 79.9764L334.806 63.5167L334.838 63.3579C334.868 63.2127 335.548 59.7723 333.875 57.2808C333.453 56.6615 332.909 56.1357 332.275 55.7363C331.641 55.3368 330.932 55.0723 330.191 54.9591C325.078 54 313.639 53.5275 313.155 53.5078L313.064 53.5041L312.973 53.5164C312.661 53.5591 305.35 54.6282 303.698 61.0146L295.744 75.496L295.713 75.599L259.708 194.022L261.69 194.625L297.663 76.305L305.643 61.7749L305.676 61.6413C306.844 56.8354 312.431 55.7111 313.174 55.5824C314.342 55.6323 325.093 56.1109 329.809 56.9957C330.278 57.0595 330.728 57.2199 331.131 57.4668C331.534 57.7136 331.882 58.0414 332.152 58.4296C333.183 59.9571 332.925 62.2062 332.834 62.7974L323.626 79.1563L323.593 79.2643L285.517 204.222L287.498 204.826Z" fill="#3F3D56"/>
<path d="M293.061 87.4692L292.693 89.5082L320.168 94.4728L320.536 92.4338L293.061 87.4692Z" fill="#3F3D56"/>
<path d="M287.93 104.426L287.515 106.457L314.795 112.027L315.209 109.997L287.93 104.426Z" fill="#3F3D56"/>
<path d="M278.792 134.754L278.223 136.746L304.856 144.37L305.426 142.378L278.792 134.754Z" fill="#3F3D56"/>
<path d="M296.804 193.535L297.559 191.605L271.708 181.479L270.439 167.727L294.567 176.744L302.384 188.059L304.088 186.881L295.901 175.03L268.073 164.631L269.763 182.942L296.804 193.535Z" fill="#3F3D56"/>
<path d="M305.785 210.262C313.528 210.262 319.804 203.982 319.804 196.236C319.804 188.49 313.528 182.21 305.785 182.21C298.042 182.21 291.765 188.49 291.765 196.236C291.765 203.982 298.042 210.262 305.785 210.262Z" fill="#3F3D56"/>
<path d="M309.449 203.09C312.88 203.09 315.662 200.307 315.662 196.874C315.662 193.441 312.88 190.658 309.449 190.658C306.018 190.658 303.236 193.441 303.236 196.874C303.236 200.307 306.018 203.09 309.449 203.09Z" fill="#E6E6E6"/>
</g>
<defs>
<clipPath id="clip0_2_34">
<rect width="335" height="211" fill="white"/>
</clipPath>
</defs>
</svg>
